<?xml version="1.0" encoding="UTF-8"?>
<!-- Generator: Adobe Illustrator 26.0.1, SVG Export Plug-In . SVG Version: 6.00 Build 0)  -->
<svg version="1.1" id="Слой_1" xmlns="http://www.w3.org/2000/svg" xmlns:xlink="http://www.w3.org/1999/xlink" x="0px" y="0px" viewBox="0 0 24 24" style="enable-background:new 0 0 24 24;" xml:space="preserve">
<style type="text/css">
	.st0{fill:#FFFFFF;}
	.st1{fill:none;}
	.st2{fill-rule:evenodd;clip-rule:evenodd;fill:url(#SVGID_1_);}
	.st3{fill:url(#SVGID_00000051351466808111219160000000140204830991129510_);}
	.st4{fill:url(#SVGID_00000069393158326411838270000012720528944461840828_);}
</style>
<path class="st0" d="M2,12C2,6.5,6.5,2,12,2s10,4.5,10,10s-4.5,10-10,10S2,17.5,2,12z"/>
<path class="st1" d="M8,8.5h7.2v7.1H8V8.5z"/>
<radialGradient id="SVGID_1_" cx="-987.8309" cy="1012.788" r="1.262313e-02" gradientTransform="matrix(-346.4626 -399.8405 -287.7029 249.2952 -50848.3672 -647443.3125)" gradientUnits="userSpaceOnUse">
	<stop offset="0" style="stop-color:#00CACC"/>
	<stop offset="1" style="stop-color:#048FCE"/>
</radialGradient>
<path class="st2" d="M12.1,9.6c-0.2,0-0.4,0.2-0.4,0.5c0,0.1,0,0.1,0.2,0.7c0.5,1.4,0.7,1.7,0.7,1.8c0.1,0.1,0.1,0.2,0.2,0.3  c0.1,0.1,0.1,0.1,0.2,0.2c0.1,0.1,0.2,0.1,0.8,0.3c0.5,0.2,0.8,0.3,1.1,0.4c0.3,0.2,0.6,0.3,0.7,0.6c0.1,0.2,0.2,0.4,0.2,0.7  c0,0.1,0,0.4,0,0.5c0,0.2-0.1,0.4-0.2,0.6c-0.1,0.1,0,0.1,0,0c0.2-0.3,0.5-0.8,0.6-1.2c0.1-0.5,0.2-1.1,0.1-1.6  c-0.2-1-0.9-1.9-1.8-2.4c-0.1,0-1.6-0.9-1.7-0.9c-0.3-0.2-0.4-0.2-0.5-0.2C12.3,9.6,12.2,9.6,12.1,9.6C12.1,9.6,12.1,9.6,12.1,9.6z"/>
<radialGradient id="SVGID_00000050651888426171783870000015715972657396243096_" cx="-985.6042" cy="1012.5397" r="1.262313e-02" gradientTransform="matrix(526.0025 -225.395 -375.6281 -876.6003 898777.5625 665459.4375)" gradientUnits="userSpaceOnUse">
	<stop offset="0" style="stop-color:#00BBEC"/>
	<stop offset="1" style="stop-color:#2756A9"/>
</radialGradient>
<path style="fill:url(#SVGID_00000050651888426171783870000015715972657396243096_);" d="M10.8,16c0,0-0.5,0.3-0.7,0.4  c-0.2,0.1-0.4,0.2-0.6,0.2c-0.1,0-0.3,0-0.4,0c-0.3,0-0.5-0.1-0.7-0.3c-0.1-0.1-0.2-0.2-0.3-0.3c-0.1-0.2-0.2-0.4-0.3-0.6  c0-0.1,0-0.1,0-0.1c0,0,0,0.1,0,0.2c0,0.1,0,0.3,0.1,0.4c0.3,1,1,1.9,2,2.3c0.3,0.1,0.6,0.2,0.9,0.2c0.1,0,0.5,0,0.6,0  c0.6,0,1.1-0.2,1.6-0.5c0,0,2.2-1.4,2.4-1.6c0.1-0.1,0.2-0.2,0.2-0.2c0,0,0,0,0-0.1c0.1-0.2,0.2-0.3,0.2-0.6c0-0.1,0-0.3,0-0.5  c0-0.2-0.1-0.5-0.2-0.6c-0.1-0.3-0.4-0.5-0.7-0.7c-0.1-0.1-0.2-0.1-0.2-0.1C14.6,13.6,10.8,16,10.8,16z"/>
<linearGradient id="SVGID_00000048477089787368483810000008226559063085630339_" gradientUnits="userSpaceOnUse" x1="9.2614" y1="20.4764" x2="9.2614" y2="9.3126" gradientTransform="matrix(1 0 0 -1 0 26)">
	<stop offset="0" style="stop-color:#00BBEC"/>
	<stop offset="1" style="stop-color:#2756A9"/>
</linearGradient>
<path style="fill:url(#SVGID_00000048477089787368483810000008226559063085630339_);" d="M7.8,13.6l0,1.8l0,0.1  C7.9,15.8,8,16,8.2,16.2c0.1,0.1,0.2,0.2,0.3,0.2c0.2,0.1,0.5,0.2,0.8,0.2c0.3,0,0.5-0.1,0.8-0.2c0,0,0.2-0.1,0.4-0.2l0.3-0.2v-2.1  v-2.1l0-1.9c0-1.2,0-2,0-2c0-0.4-0.2-0.7-0.4-1c-0.1-0.1-1.5-1.1-1.6-1.1C8.5,5.6,8.5,5.6,8.5,5.6c-0.1,0-0.2,0-0.2,0  C8,5.6,7.8,5.7,7.8,5.9c0,0,0,0.5,0,2.9l0,2.9h0L7.8,13.6z"/>
</svg>