<?xml version="1.0" encoding="UTF-8"?>
<!-- Generator: Adobe Illustrator 26.0.1, SVG Export Plug-In . SVG Version: 6.00 Build 0)  -->
<svg version="1.1" id="Слой_1" xmlns="http://www.w3.org/2000/svg" xmlns:xlink="http://www.w3.org/1999/xlink" x="0px" y="0px" viewBox="0 0 24 24" style="enable-background:new 0 0 24 24;" xml:space="preserve">
<style type="text/css">
	.st0{fill:#F25936;}
	.st1{fill:#FFFFFF;}
	.st2{fill-rule:evenodd;clip-rule:evenodd;fill:#FED30A;}
	.st3{fill:#2D4F8D;}
	.st4{fill:#D5D7D8;}
	.st5{fill:#67BD47;}
	.st6{fill:#43A347;}
</style>
<g id="g186" transform="translate(-24.5 -19)">
	<g id="g178">
		<g id="g134">
			<circle id="circle105" class="st0" cx="36.5" cy="31" r="10"/>
			<path id="path107" class="st1" d="M45,27.4c-0.5-1.1-1.1-2.1-2-2.9c-0.8-0.8-1.8-1.5-2.9-2c-1.1-0.5-2.3-0.7-3.6-0.7     c-1.2,0-2.5,0.3-3.6,0.7c-1.1,0.5-2.1,1.1-2.9,2c-0.8,0.8-1.5,1.8-2,2.9c-0.5,1.1-0.7,2.3-0.7,3.6c0,1.2,0.3,2.5,0.7,3.6     c0.5,1.1,1.1,2.1,2,2.9c0.8,0.8,1.8,1.5,2.9,2c1.1,0.5,2.3,0.7,3.6,0.7c1.2,0,2.5-0.3,3.6-0.7c1.1-0.5,2.1-1.1,2.9-2     c0.8-0.8,1.5-1.8,2-2.9c0.5-1.1,0.7-2.3,0.7-3.6C45.7,29.8,45.4,28.5,45,27.4z M38.5,39.2c-0.5-0.9-1.9-3.4-1.9-5.3     c0-4.3,2.9-0.6,2.9-4c0-0.8-0.4-3.7-2.9-4.3c-0.6-0.8-2.1-1.6-4.4-1.3c0,0,0.4,0.1,0.8,0.3c0,0-0.8,0.1-0.9,0.7     c0,0,1.6-0.1,2.6,0.2c-2.1,0.3-3.2,1.4-3.1,3.5c0.3,2.9,1.5,8.1,1.9,9.9c-3.3-1.2-5.6-4.3-5.6-8c0-4.7,3.8-8.5,8.5-8.5     S45,26.3,45,31C45,35,42.2,38.3,38.5,39.2z"/>
			<path id="Beak_2_" class="st2" d="M36,32.4c0-1.1,1.5-1.4,2.1-1.4c1.5,0,3.7-1,4.2-1c0.5,0,0.9,0.2,0.9,0.5     c0,0.4-3.1,1.8-4.2,1.6c-1.1-0.1-1.4,0-1.4,0.5c0,0.4,0.8,0.8,1.7,0.8c1.4,0,2.7-0.6,3.1-0.3c0.3,0.3-0.9,1.2-2.4,1.2     C38.5,34.2,36,33.5,36,32.4L36,32.4z"/>
			<g id="g118">
				<path id="path110" class="st3" d="M38.7,27.7c-0.4-0.5-1.1-0.5-1.4,0.1C37.7,27.5,38.2,27.4,38.7,27.7z"/>
				<path id="path112" class="st3" d="M34.2,27.7c-0.5-0.3-1.5-0.4-1.4,0.7C33.1,27.8,33.5,27.6,34.2,27.7z"/>
				<path id="path114" class="st3" d="M38.4,28.7c-0.3,0-0.5,0.3-0.5,0.5c0,0.3,0.3,0.5,0.5,0.5c0.3,0,0.5-0.3,0.5-0.5      C38.9,28.9,38.7,28.7,38.4,28.7z M38.6,29.2c-0.1,0-0.2-0.1-0.2-0.2c0-0.1,0.1-0.2,0.2-0.2c0.1,0,0.2,0.1,0.2,0.2      C38.7,29.1,38.6,29.2,38.6,29.2z"/>
				<path id="path116" class="st3" d="M34.1,29c-0.3,0-0.6,0.3-0.6,0.6c0,0.3,0.3,0.6,0.6,0.6c0.3,0,0.6-0.3,0.6-0.6      C34.7,29.3,34.4,29,34.1,29z M34.3,29.6c-0.1,0-0.2-0.1-0.2-0.2s0.1-0.2,0.2-0.2c0.1,0,0.2,0.1,0.2,0.2S34.4,29.6,34.3,29.6z"/>
			</g>
			<g id="g126">
				<path id="path120" class="st4" d="M32.7,26.3c-0.8,0.6-1.2,1.5-1,2.7c0.3,2.9,1.5,8.1,1.9,9.9l0.5,0.1      c-0.3-1.1-1.6-6.5-2.1-10.6C31.8,27.5,32.2,26.8,32.7,26.3L32.7,26.3z"/>
				<path id="path122" class="st4" d="M34.7,25.6c0.1,0,0.1,0,0.1,0c-0.9-0.4-2.2-0.4-2.6-0.4c0,0.1-0.1,0.1-0.1,0.2      C32.1,25.4,33.7,25.3,34.7,25.6L34.7,25.6z"/>
				<path id="path124" class="st4" d="M33.1,24.7c-0.3-0.2-0.5-0.3-0.6-0.4c-0.1,0-0.2,0-0.3,0c0,0,0.4,0.1,0.8,0.3h0H33.1      L33.1,24.7z"/>
			</g>
			<g id="g132">
				<path id="path128" class="st5" d="M39.8,35.8c-0.3-0.1-1.4,0.7-1.8,1c0-0.1,0-0.1-0.1-0.2c-0.1-0.2-1.1-0.1-1.4,0.2      c-0.7-0.3-2-0.9-2-0.5c-0.1,0.5,0,2.6,0.3,2.7c0.2,0.1,1.3-0.5,1.9-0.8h0c0.3,0.1,1,0,1.2-0.1c0,0,0.1-0.1,0.1-0.1      c0.5,0.2,1.6,0.6,1.9,0.5C40.3,38.4,40.2,35.8,39.8,35.8L39.8,35.8z"/>
				<path id="path130" class="st6" d="M36.8,38.2c-0.3-0.1-0.2-0.4-0.2-1.2c-0.1,0.1-0.1,0.1-0.1,0.2c0,0.8-0.1,1.2,0.2,1.2      c0.3,0.1,1,0,1.3-0.1c0.1,0,0.1-0.1,0.1-0.2C37.7,38.2,37.1,38.2,36.8,38.2z"/>
			</g>
		</g>
	</g>
</g>
</svg>