<?xml version="1.0" encoding="UTF-8"?>
<!-- Generator: Adobe Illustrator 26.0.1, SVG Export Plug-In . SVG Version: 6.00 Build 0)  -->
<svg version="1.1" id="Слой_1" xmlns="http://www.w3.org/2000/svg" xmlns:xlink="http://www.w3.org/1999/xlink" x="0px" y="0px" viewBox="0 0 24 24" style="enable-background:new 0 0 24 24;" xml:space="preserve">
<style type="text/css">
	.st0{fill:#FFFFFF;}
	.st1{fill:#4285F4;}
	.st2{fill:#34A853;}
	.st3{fill:#FBBC05;}
	.st4{fill:#EA4335;}
	.st5{fill:none;}
</style>
<path class="st0" d="M2,12C2,6.5,6.5,2,12,2c5.5,0,10,4.5,10,10s-4.5,10-10,10C6.5,22,2,17.5,2,12z"/>
<path class="st1" d="M18.1,12.2c0-0.5,0-0.8-0.1-1.2h-5.7v2.3h3.2c-0.2,0.7-0.5,1.4-1.2,1.9v1.6h1.9C17.5,15.5,18.1,14,18.1,12.2z"/>
<path class="st2" d="M12.3,18c1.7,0,2.9-0.5,4-1.5l-1.9-1.5c-0.5,0.4-1.2,0.5-2,0.5c-1.6,0-2.9-1-3.4-2.5h-2v1.6  C7.9,16.7,10,18,12.3,18z"/>
<path class="st3" d="M8.9,13.1c-0.1-0.4-0.2-0.7-0.2-1.1s0.1-0.8,0.2-1.1V9.4h-2c-0.4,0.8-0.6,1.7-0.6,2.7S6.6,14,7,14.8l1.6-1.2  C8.5,13.6,8.9,13.1,8.9,13.1z"/>
<path class="st4" d="M12.3,8.4c0.9,0,1.7,0.3,2.3,0.9l1.7-1.7c-1-1-2.4-1.6-4.1-1.6c-2.4,0-4.4,1.4-5.3,3.3l2,1.6  C9.4,9.5,10.7,8.4,12.3,8.4z"/>
<path class="st5" d="M8.4,8.2h7.9V16H8.4V8.2z"/>
</svg>