<?xml version="1.0" encoding="utf-8"?>
<!-- Generator: Adobe Illustrator 27.3.1, SVG Export Plug-In . SVG Version: 6.00 Build 0)  -->
<svg version="1.1" id="Слой_1" xmlns="http://www.w3.org/2000/svg" xmlns:xlink="http://www.w3.org/1999/xlink" x="0px" y="0px"
	 viewBox="0 0 2000 2000" style="enable-background:new 0 0 2000 2000;" xml:space="preserve">
<style type="text/css">
	.st0{fill:#F90D18;}
</style>
<path class="st0" d="M1426.2,567.8c-93.2,0-181.2,21.6-259,59.9V316.9H832.2v310.9c-77.8-38.3-165.8-59.9-259-59.9
	c-316.9,0-573.8,249.7-573.8,557.8c0,306,253.4,554.4,567.4,557.7v-306.2c-140-3.3-252.5-114.7-252.5-251.6
	c0-139,115.9-251.6,258.9-251.6c143,0,258.9,112.7,258.9,251.6h0.1v557.8h335.1v-557.8h0.1c0-139,115.9-251.6,258.9-251.6
	c143,0,258.9,112.7,258.9,251.6c0,136.9-112.5,248.3-252.5,251.6v306.2c313.9-3.3,567.4-251.7,567.4-557.7
	C2000,817.6,1743.1,567.8,1426.2,567.8z"/>
</svg>
