<?xml version="1.0" encoding="utf-8"?>
<!-- Generator: Adobe Illustrator 27.3.1, SVG Export Plug-In . SVG Version: 6.00 Build 0)  -->
<svg version="1.1" id="Слой_1" xmlns="http://www.w3.org/2000/svg" xmlns:xlink="http://www.w3.org/1999/xlink" x="0px" y="0px"
	 viewBox="0 0 2000 2000" style="enable-background:new 0 0 2000 2000;" xml:space="preserve">
<style type="text/css">
	.st0{fill:#FF6666;}
</style>
<g>
	<path class="st0" d="M1238.6,273.8L985.2,445.2L757,273.8L203,689.9l2.2,929.8l105.6,105.6h617.9l757.1,0.9l112.2-125.4V694.8
		L1238.6,273.8z M1156,1570.3H358V766.9l399-299.2l399,307.1V1570.3z M1641.8,1570.3H1314v-163.2h160.6v-160.6H1314v-156.2h160.6
		V929.7H1314V692.1l-191.4-145.2l110-79.2l409.2,309.7V1570.3z"/>
	<rect x="517.6" y="929.7" class="st0" width="160.6" height="160.6"/>
	<rect x="836.6" y="929.7" class="st0" width="160.6" height="160.6"/>
	<rect x="517.6" y="1246.5" class="st0" width="160.6" height="160.6"/>
	<rect x="836.6" y="1246.5" class="st0" width="160.6" height="160.6"/>
</g>
</svg>
